<?xml version="1.0" encoding="utf-8"?>
<svg id="Layer_1" data-name="Layer 1" xmlns="http://www.w3.org/2000/svg" viewBox="0 152.658 1920 779.31">
  <defs>
    <style>
      .cls-1 {
        fill: #f6f4ef;
      }

      .cls-2 {
        fill: #192830;
      }
    </style>
  </defs>
  <g style="" transform="matrix(3.957753, 0, 0, 3.957753, -2678.378817, -1626.898776)">
    <path class="cls-1" d="M792.14,576.08h-.63s.49-.63.49-.63c.04.22.09.41.13.63Z"/>
    <g>
      <path class="cls-1" d="M1001.92,635.62s.05.02.09.02h.09l.02-.02h-.2Z"/>
      <path class="cls-1" d="M884.86,635.62v.02h80.1s0-.02.02-.02h-80.11Z"/>
      <path class="cls-1" d="M813.51,609.41v-48.39h272.42s0-52.79,0-52.79l-52.15.41h-220.27v-49.97s-113.56,0-113.56,0l-2.89,20.5c9.91-8.2,22.2-13.73,36.06-15.58l-7.61,54.07h11.6s39.24-47.3,39.24-47.3c9.51,4.72,17.72,11.47,24.16,19.73l-36.76,43.08,30.89,53.91c-8.6,8.58-19.39,14.92-31.66,18.15l-30.46-55.66h-11.36s-7.41,52.06-7.41,52.06c-12.55-5.42-22.98-14.29-30.3-25.56l-4.69,33.37h134.76ZM792.15,576.08h-.63l.48-.63c.05.22.09.41.14.63Z"/>
      <path class="cls-1" d="M884.34,583.21v52.42s111.38,0,111.38,0l13.73-26.33,13.55,16.48-5.1,9.85h3.86s21.24-40.59,21.24-40.59l13.98,17.32-12.17,23.26h3.84s26.26-47.01,26.26-47.01c10.18,15.69,20.39,31.36,30.57,47.03h55s0-127.41,0-127.41h-52.4s0,74.98,0,74.98h-223.75Z"/>
      <path class="cls-1" d="M792.14,576.08h-.63s.49-.63.49-.63c.04.22.09.41.13.63Z"/>
    </g>
  </g>
  <path class="cls-1" d="M 960.859 538.548 C 960.859 538.548 961.056 538.628 961.214 538.628 L 961.57 538.628 L 961.649 538.548 L 960.859 538.548 Z" style=""/>
  <path class="cls-2" d="M 1840.31 671.963 C 1841.38 662.188 1844.66 653.007 1847.55 643.745 C 1847.55 643.429 1846.13 643.151 1845.85 643.191 C 1844.19 643.429 1840.28 653.085 1838.45 654.511 L 1838.45 643.745 C 1838.45 643.27 1839.91 641.766 1837.97 642.082 C 1837.78 643.31 1837.03 645.012 1835.56 644.972 L 1835.56 632.742 C 1834.96 632.071 1834.29 631.753 1833.38 631.594 C 1826.06 630.17 1814.1 630.249 1806.51 630.605 C 1804.61 630.684 1794.2 631.594 1793.46 632.188 C 1793.41 632.228 1792.38 633.614 1792.38 633.731 L 1792.38 646.911 L 1788.55 642.122 L 1788.78 653.639 C 1786.84 651.7 1784.97 645.842 1783.29 644.259 C 1780.82 641.965 1780.59 644.259 1781.1 646.476 C 1782.26 651.74 1784.82 657.162 1786.02 662.663 C 1788.35 673.389 1787.59 682.966 1787.59 693.652 C 1787.59 745.578 1787.27 797.741 1787.59 849.509 C 1787.64 858.849 1788.15 868.189 1788.15 877.569 L 1788.15 891.976 L 1790.96 891.976 L 1790.96 887.662 C 1792.53 888.492 1792.98 890.51 1793.84 891.976 L 1805.83 891.976 L 1802.51 887.463 L 1806.54 883.347 L 1811.09 888.375 L 1807.79 891.976 L 1818.79 891.976 L 1815.46 888.413 L 1820.04 883.862 C 1824.99 887.068 1824.72 888.097 1820.69 891.976 L 1833.66 891.976 C 1834.22 891.342 1835.39 887.898 1836.27 888.136 C 1836.87 888.335 1837.83 891.184 1837.46 891.976 L 1839.88 891.976 C 1839.88 886.118 1839.88 880.181 1839.88 874.323 C 1839.88 867.675 1839.84 860.987 1839.88 854.298 C 1840.31 793.704 1840.59 732.913 1840.36 672.082 L 1840.31 671.963 Z M 1826.89 854.93 C 1826.18 855.445 1821.91 850.419 1822.14 849.509 L 1832.63 834.312 C 1832.71 835.815 1834.22 837.2 1834.5 838.507 C 1835.21 842.108 1828.43 851.329 1826.89 854.93 Z M 1835.87 844.047 C 1836.19 843.572 1835.84 843.177 1836.95 843.413 C 1837.83 849.786 1835.21 856.317 1831.92 861.62 C 1826.58 857.028 1829.82 855.999 1832.23 851.369 C 1833.46 849.112 1834.57 846.065 1835.87 844.007 L 1835.87 844.047 Z M 1819.93 847.728 L 1815.41 841.83 L 1825.9 826.197 C 1826.74 825.564 1830.7 831.026 1830.5 831.976 L 1819.93 847.728 Z M 1812.85 719.813 C 1813.16 719.338 1812.85 718.943 1813.91 719.179 L 1818.22 728.521 C 1818.19 729.074 1814.67 735.328 1813.99 736.318 C 1813.67 736.792 1814.04 737.188 1812.93 736.95 L 1808.61 728.124 C 1808.64 727.649 1812.28 720.645 1812.8 719.813 L 1812.85 719.813 Z M 1806.99 724.958 L 1802.16 715.143 L 1806.31 705.803 C 1806.83 705.408 1811.57 715.024 1811.62 716.132 L 1807.02 724.997 L 1806.99 724.958 Z M 1813.95 743.165 C 1819.3 753.494 1825.95 763.19 1830.27 774.075 C 1825.78 783.494 1820.44 793.744 1814.1 802.055 C 1813.91 802.333 1814.1 802.966 1813.28 802.689 C 1812.2 802.333 1802.59 786.027 1801.4 783.81 C 1799.71 780.525 1798.12 777.161 1796.9 773.638 C 1801.48 763.309 1807.14 753.494 1812.76 743.679 L 1813.95 743.204 L 1813.95 743.165 Z M 1813.67 807.913 L 1824.87 823.426 L 1812.96 839.575 L 1802.08 823.071 L 1813.67 807.952 L 1813.67 807.913 Z M 1819.69 811.752 L 1815.46 804.945 L 1832.15 777.241 C 1832.35 778.941 1834.29 781.831 1834.42 783.296 C 1834.65 785.908 1828.99 797.188 1827.45 800.076 C 1826.89 801.105 1820.36 812.187 1819.69 811.752 Z M 1815.06 740.076 L 1819.73 731.211 C 1820.72 731.765 1821.32 733.112 1821.91 734.101 C 1824.92 739.365 1833.46 755.711 1834.37 760.974 C 1834.93 764.101 1833.03 767.188 1832.2 770.116 L 1815.1 740.155 L 1815.06 740.076 Z M 1819.69 724.958 L 1815.38 715.657 L 1820.64 705.803 L 1824.87 715.538 C 1823.45 718.784 1822.18 722.346 1819.69 724.958 Z M 1815.06 688.744 L 1820.16 677.94 C 1820.8 677.465 1824.92 687.32 1824.99 688.269 C 1825.11 690.961 1821.23 696.106 1820.64 699.035 L 1815.06 688.744 Z M 1818.62 702.557 C 1816.97 705.169 1816.12 709.325 1814.35 711.7 C 1813.95 712.255 1813.87 712.69 1813 712.491 L 1808.3 702.281 C 1810 699.47 1811.18 695.631 1812.88 692.979 C 1813.19 692.504 1812.88 692.149 1813.95 692.385 L 1818.62 702.597 L 1818.62 702.557 Z M 1806.28 699.035 L 1802.04 688.349 L 1806.48 678.455 L 1811.82 688.784 C 1809.95 692.149 1808.69 696.225 1806.23 699.075 L 1806.28 699.035 Z M 1804.81 702.637 C 1804.81 703.111 1801.53 710.235 1801.09 710.908 C 1800.77 711.383 1801.13 711.778 1800.03 711.542 C 1799.74 708.574 1797.05 705.169 1797.13 702.202 C 1797.16 700.855 1799.32 694.92 1800.03 693.494 C 1800.26 693.019 1799.78 692.584 1801.02 692.822 L 1804.84 702.637 L 1804.81 702.637 Z M 1800.97 719.179 L 1805.2 728.481 L 1791.39 756.62 C 1788.98 745.419 1793.92 733.706 1798.36 723.533 C 1798.84 722.425 1799.43 720.763 1799.89 719.813 C 1800.22 719.259 1799.89 718.983 1800.97 719.179 Z M 1806.15 732.28 C 1806.31 732.003 1806.88 730.935 1807.22 731.171 L 1811.46 740.394 C 1806 750.169 1799.98 759.628 1795.71 769.997 L 1792.86 762.043 C 1796.25 752.584 1800.8 740.829 1806.15 732.28 Z M 1795.71 777.716 C 1795.71 777.716 1796.39 780.09 1796.73 780.763 C 1800.89 789.233 1806.15 797.148 1811.46 804.945 L 1806.94 811.752 C 1801.88 804.51 1796.62 795.762 1793.97 787.292 C 1792.75 783.216 1792.9 782.306 1794.68 778.348 C 1794.88 777.913 1794.88 776.884 1795.66 777.676 L 1795.71 777.716 Z M 1798.01 802.966 C 1799.12 804.985 1804.58 812.861 1804.72 814.047 C 1804.97 815.63 1801.13 818.401 1800.94 820.419 C 1800.17 820.933 1796.14 812.346 1795.74 811.474 C 1792.53 804.232 1789.85 796.277 1790.91 788.283 L 1798.01 802.966 Z M 1798.59 823.031 L 1794.8 828.058 C 1792.1 821.013 1790.17 813.612 1790.48 806.014 L 1798.64 823.031 L 1798.59 823.031 Z M 1793.21 831.264 L 1790.96 834.747 L 1790.48 825.168 L 1793.26 831.264 L 1793.21 831.264 Z M 1790.91 843.413 L 1798.4 857.068 C 1798.07 857.9 1795.43 861.66 1794.77 861.144 C 1792.62 855.564 1789.8 849.47 1790.91 843.413 Z M 1792.9 838.507 C 1793.1 837.398 1794.48 836.211 1794.29 834.786 C 1795.11 834.627 1795.23 835.063 1795.63 835.617 C 1796.54 836.804 1797.48 839.101 1798.4 840.525 C 1800.37 843.652 1802.47 846.659 1804.66 849.666 L 1800.97 854.93 L 1799.98 854.614 C 1798.52 850.973 1792.27 842.148 1792.9 838.507 Z M 1801.91 840.761 C 1800.85 839.139 1797.16 833.362 1796.85 831.896 C 1796.54 830.432 1800.14 825.446 1800.49 825.683 L 1811.37 841.752 L 1806.94 847.253 C 1806.28 847.451 1806.15 846.818 1805.88 846.5 C 1804.84 845.431 1802.87 842.267 1801.96 840.801 L 1801.91 840.761 Z M 1813.24 844.364 L 1818.11 849.865 L 1813.91 855.882 C 1812.96 856.513 1809.6 851.092 1808.73 850.26 L 1813.24 844.364 Z M 1825.95 820.379 C 1825.7 818.361 1821.78 815.512 1822.31 813.651 C 1822.86 811.792 1828 804.945 1829.39 802.45 C 1831.72 798.295 1833.23 793.744 1835.33 789.668 C 1835.61 789.114 1835.76 788.321 1836.52 788.204 C 1838.09 792.993 1836.55 797.741 1835.08 802.373 C 1834.62 803.916 1827.45 821.329 1825.95 820.34 L 1825.95 820.379 Z M 1835.99 779.14 L 1833.62 773.638 L 1836.24 766.673 C 1838.21 770.908 1837.23 774.905 1835.99 779.14 Z M 1836.47 757.095 L 1821.83 728.362 L 1826.66 718.744 C 1828.88 724.127 1831.56 729.431 1833.46 734.931 C 1836.07 742.293 1838.4 749.259 1836.47 757.095 Z M 1822.11 702.637 L 1826.66 692.347 L 1830.58 702.241 L 1826.86 712.016 C 1826.15 712.531 1822.54 703.467 1822.11 702.637 Z M 1828.43 688.666 L 1831.69 679.364 C 1832.6 679.879 1832.95 681.859 1833.26 682.848 C 1833.71 684.352 1834.85 687.953 1834.88 689.298 C 1834.93 691.753 1832.71 695.434 1832.63 698.086 C 1831.41 698.283 1831.89 697.967 1831.64 697.413 C 1830.41 694.721 1829.79 691.356 1828.43 688.666 Z M 1826.89 684.668 L 1822.23 674.418 C 1824.24 671.172 1824.99 666.898 1827.4 664.01 C 1827.4 667.017 1830.65 671.727 1830.7 674.339 C 1830.73 676.476 1827.21 682.056 1826.89 684.668 Z M 1820.21 671.252 L 1815.01 660.051 L 1821.4 649.167 L 1825.47 659.932 C 1825.55 661.12 1820.72 671.647 1820.21 671.212 L 1820.21 671.252 Z M 1818.74 674.418 L 1813.95 685.618 L 1808.25 674.853 L 1813 663.573 L 1818.74 674.418 Z M 1806.28 671.252 L 1801.48 660.408 L 1804.84 649.642 L 1811.49 660.408 L 1806.28 671.212 L 1806.28 671.252 Z M 1804.77 674.853 L 1800.97 684.668 C 1800.29 684.628 1800.17 683.957 1799.98 683.52 C 1799.27 681.897 1797.16 676.357 1797.1 674.814 C 1797.1 673.586 1799.63 664.8 1800.22 664.524 L 1804.72 674.853 L 1804.77 674.853 Z M 1798.95 688.349 L 1795.74 697.611 C 1794.32 696.066 1792.9 691.239 1792.86 689.221 C 1792.86 688.468 1795 679.404 1795.51 679.404 L 1798.98 688.349 L 1798.95 688.349 Z M 1795.71 706.753 L 1798.95 715.538 L 1790.88 735.525 L 1790.4 730.46 C 1791.22 723.098 1792.22 714.589 1795 707.702 C 1795.2 707.227 1795.08 706.633 1795.71 706.753 Z M 1790.91 767.188 C 1791.9 768.098 1793.61 772.569 1793.64 773.757 C 1793.69 775.024 1791.99 777.241 1791.87 778.705 L 1790.4 772.688 L 1790.91 767.188 Z M 1790.45 858.77 C 1791.16 859.403 1793.21 863.321 1793.21 863.875 C 1793.26 864.628 1792.1 865.815 1791.62 866.408 C 1790.71 866.447 1790.25 859.64 1790.45 858.73 L 1790.45 858.77 Z M 1792.86 870.525 C 1792.86 869.971 1794.37 866.131 1795.23 866.922 L 1798.52 872.464 C 1798.36 872.74 1797.84 873.493 1797.21 874.206 C 1796.3 875.313 1795.23 876.461 1794.77 876.065 C 1794.77 875.432 1794.6 874.838 1794.29 874.206 C 1793.72 872.939 1792.81 871.672 1792.86 870.525 Z M 1796.85 864.272 L 1800.26 859.719 L 1804.33 865.696 L 1800.74 870.247 C 1799.71 870.446 1797.45 865.301 1796.82 864.272 L 1796.85 864.272 Z M 1802.44 857.542 L 1806.28 852.042 L 1811.06 858.017 C 1811.06 859.165 1806.54 863.757 1806.28 863.559 L 1802.44 857.542 Z M 1813 860.194 L 1818.22 865.776 L 1813.24 871.711 L 1808.73 865.815 C 1808.89 863.994 1812.76 862.174 1812.96 860.194 L 1813 860.194 Z M 1815.41 858.454 L 1820.01 852.517 C 1820.95 852.318 1823.96 856.553 1824.53 857.542 L 1819.98 863.559 L 1815.46 858.454 L 1815.41 858.454 Z M 1826.02 860.313 L 1827.29 860.313 L 1830.27 864.786 L 1825.95 870.762 L 1822.26 865.736 L 1826.02 860.313 Z M 1828.43 872.899 L 1832.43 866.884 C 1835.33 869.574 1834.57 871.672 1833.43 874.166 C 1833.03 875.036 1832.6 875.946 1832.2 876.935 L 1829.62 874.166 L 1828.48 872.899 L 1828.43 872.899 Z M 1834.17 863.875 L 1837.43 857.82 C 1837.74 861.106 1837.1 864.193 1836.47 867.399 C 1835.61 866.922 1834.1 864.707 1834.17 863.875 Z M 1837.43 831.185 C 1837.3 832.254 1836.3 833.954 1836.47 835.261 C 1835.21 834.469 1834.62 832.57 1834.1 831.185 L 1837.38 823.784 C 1837.23 826.158 1837.66 828.889 1837.38 831.185 L 1837.43 831.185 Z M 1837.43 811.514 C 1837.07 815.036 1834.37 825.287 1832.4 828.058 C 1832.2 828.295 1831.72 828.889 1831.69 828.295 L 1828.48 823.031 L 1837.43 804.548 C 1837.26 806.804 1837.61 809.297 1837.43 811.514 Z M 1837.43 737.426 L 1828.4 715.973 L 1831.69 706.753 C 1832.6 707.267 1832.91 709.245 1833.26 710.235 C 1836.04 719.022 1837.86 728.203 1837.43 737.426 Z M 1837.43 713.441 L 1833.74 702.597 L 1835.99 695.235 C 1836.7 695.116 1836.63 696.145 1836.7 696.66 C 1837.83 702.202 1837.35 707.861 1837.43 713.48 L 1837.43 713.441 Z M 1836.47 683.244 L 1833.74 674.774 L 1836.24 666.463 C 1837.83 671.885 1837.83 677.742 1836.47 683.244 Z M 1835.28 651.106 C 1836.75 650.987 1835.48 651.621 1835.48 651.819 C 1835.48 654.431 1835.87 658.547 1835.48 660.923 C 1835.13 663.336 1832.8 667.136 1832.35 669.788 L 1828.79 660.408 L 1835.25 651.067 L 1835.28 651.106 Z M 1794.77 635.513 C 1794.88 634.8 1794.95 634.76 1795.59 634.405 C 1796.39 633.93 1801.37 633.455 1802.71 633.376 C 1810.12 632.901 1818.31 632.901 1825.7 633.376 C 1828.03 633.535 1830.81 633.93 1833.14 634.325 L 1833.14 649.444 L 1827.37 656.885 L 1822.34 642.479 L 1813.24 657.359 L 1804.1 642.479 L 1799.32 656.845 C 1798.92 656.845 1795.15 650.987 1795 650.631 C 1794.52 649.287 1794.43 637.176 1794.72 635.513 L 1794.77 635.513 Z M 1791.87 651.106 L 1798.16 660.923 L 1795.48 669.313 C 1794.4 667.136 1793.1 664.049 1792.58 661.674 C 1792.47 661.04 1791.87 658.388 1791.87 658.033 L 1791.87 651.067 L 1791.87 651.106 Z M 1790.91 666.938 C 1792.02 668.125 1793.64 672.36 1793.77 673.943 C 1793.97 676.476 1791.9 679.642 1791.87 682.294 C 1791.19 683.005 1790.99 682.254 1790.91 681.581 C 1790.28 676.673 1790.85 671.846 1790.91 666.977 L 1790.91 666.938 Z M 1790.45 699.312 C 1790.48 698.678 1790.8 697.373 1790.91 696.423 C 1790.99 695.79 1791.16 694.92 1791.87 695.71 L 1793.77 702.241 L 1790.45 712.491 C 1790.71 708.256 1790.05 703.547 1790.45 699.312 Z M 1791.39 880.815 C 1791.11 878.479 1790.08 876.5 1790.88 874.166 C 1790.88 874.166 1790.88 874.126 1790.88 874.087 L 1790.88 874.166 C 1790.88 874.166 1793.18 878.757 1793.18 878.757 C 1793.38 879.351 1791.51 880.973 1791.36 880.815 L 1791.39 880.815 Z M 1795.94 889.443 C 1795.59 889.443 1793.33 885.05 1793.29 884.376 C 1793.29 883.625 1794.37 881.091 1795.23 881.764 L 1798.04 886.909 L 1795.94 889.443 Z M 1800.06 885.129 L 1796.78 879.152 L 1800.49 875.076 L 1804.33 881.091 C 1804.33 881.923 1800.62 885.604 1800.03 885.169 L 1800.06 885.129 Z M 1806.23 878.598 L 1803.3 874.166 L 1802.44 872.859 L 1806.51 867.834 L 1811.06 873.809 L 1810.83 874.126 L 1807.22 878.836 L 1806.23 878.519 L 1806.23 878.598 Z M 1813.24 886.118 L 1808.73 881.131 C 1809.44 880.3 1813 875.352 1813.95 876.026 L 1818.19 881.053 L 1813.24 886.118 Z M 1819.93 878.916 L 1816.01 874.206 L 1815.41 873.493 L 1819.98 868.388 C 1820.8 868.229 1824.48 872.384 1824.39 873.334 L 1823.68 874.246 L 1819.93 878.955 L 1819.93 878.916 Z M 1825.47 885.129 L 1822.23 881.053 L 1826.66 875.511 L 1830.1 879.587 C 1829.7 880.459 1826.54 885.88 1825.47 885.089 L 1825.47 885.129 Z M 1830.98 889.918 L 1828.36 886.869 L 1831.69 882.239 C 1836.07 883.625 1833.03 887.701 1830.98 889.918 Z M 1835.99 881.764 C 1832.71 879.746 1834.88 876.421 1836.87 874.166 L 1836.95 874.087 C 1836.95 874.087 1836.95 874.126 1836.95 874.166 C 1837.89 876.896 1836.67 879.112 1835.96 881.764 L 1835.99 881.764 Z" style=""/>
  <path class="cls-2" d="M 1815.89 485.712 C 1815.18 486.503 1816.29 495.607 1816.32 497.388 C 1816.8 517.612 1814.87 539.855 1816.83 559.683 C 1816.97 561.028 1819.41 570.962 1819.89 571.516 C 1820.69 572.466 1822.86 571.754 1824.13 572.07 C 1827.69 573.059 1825.98 584.775 1826.38 587.782 C 1827.06 587.782 1827.8 587.663 1828.43 587.862 C 1830.1 588.376 1831.81 594.431 1831.24 596.332 L 1834.14 597.162 C 1834.02 598.469 1835.39 600.567 1835.48 601.397 C 1835.53 602.031 1835.01 602.941 1835.05 603.811 C 1835.08 606.345 1835.13 608.917 1835.01 611.45 L 1834.1 612.044 C 1820.69 610.223 1806.71 610.026 1793.33 612.241 C 1793.33 608.403 1793.64 604.802 1792.47 601.081 C 1794.2 598.825 1793.33 596.054 1797.13 596.371 C 1797.05 593.086 1796.42 591.662 1798.59 588.97 C 1799.83 587.467 1801.28 587.902 1801.45 587.743 C 1801.96 587.268 1801.37 575.632 1802.16 573.812 C 1802.99 571.318 1806.11 572.031 1808.13 571.872 C 1809.44 566.53 1811.18 561.384 1811.54 555.844 C 1812.48 541.041 1811.85 523.944 1812.05 508.866 C 1812.13 501.186 1811.94 493.549 1812.05 485.871 C 1802.31 483.14 1808.41 477.362 1816.06 478.43 C 1822.31 479.3 1822.34 485.198 1815.89 485.633 L 1815.89 485.712 Z M 1804.33 575.592 L 1804.33 587.347 C 1810.86 586.318 1817.48 586.239 1824.01 587.347 L 1823.48 574.921 C 1822.9 574.327 1809.8 574.247 1807.9 574.406 C 1806.63 574.524 1805.24 574.643 1804.33 575.632 L 1804.33 575.592 Z M 1828.31 592.611 C 1818.9 591.463 1809.04 590.83 1799.74 593.046 L 1799.55 595.974 L 1828.31 595.974 C 1828.31 595.974 1828.31 592.611 1828.31 592.611 Z" style=""/>
  <path class="cls-2" d="M 1834.93 615.725 C 1835.76 616.674 1835.79 619.008 1834.34 619.247 C 1832.15 619.602 1826.06 618.099 1823.29 617.979 C 1813.56 617.544 1803.22 617.979 1793.58 619.366 C 1791.59 618.059 1792.47 615.685 1794.6 615.25 C 1797.64 614.577 1803.67 614.299 1806.94 614.181 C 1816.12 613.784 1825.87 614.378 1834.88 615.764 L 1834.93 615.725 Z" style=""/>
</svg>