<?xml version="1.0" encoding="utf-8"?>
<svg id="Layer_1" data-name="Layer 1" xmlns="http://www.w3.org/2000/svg" viewBox="0 0 1920 800.127">
  <defs>
    <style>
      .cls-1 {
        fill: #173b53;
      }

      .cls-2 {
        fill: #1a3263;
        font-family: FONTSPRINGDEMO-FractulAltBold, 'FONTSPRING DEMO - Fractul Alt';
        font-size: 44.21px;
        font-weight: 700;
      }
    </style>
  </defs>
  <path class="cls-1" d="M 522.82 574.457 C 511.312 574.457 501.438 578.608 493.194 586.851 C 484.951 595.094 480.801 604.969 480.801 616.475 C 480.801 627.983 484.951 637.771 493.194 645.9 C 501.438 654 511.312 658.065 522.82 658.065 C 534.326 658.065 544.115 654.03 552.243 645.9 C 560.344 637.801 564.409 627.983 564.409 616.475 C 564.409 604.969 560.373 595.094 552.243 586.851 C 544.144 578.608 534.326 574.457 522.82 574.457 Z" style=""/>
  <path class="cls-1" d="M 124.787 539.08 L 124.787 420.579 L 89.439 420.579 L 89.439 574.457 L 445.423 574.457 L 445.423 658.065 L 269.706 658.065 L 247.694 615.875 L 226.084 642.122 L 234.356 658.065 L 228.203 658.065 L 194.198 593.119 L 171.901 620.741 L 191.422 658.065 L 185.297 658.065 L 143.307 582.901 C 127.02 607.946 110.734 632.991 94.447 658.065 L 5.859 658.065 L 5.859 337.001 L 207.938 337.001 L 207.938 455.528 L 599.758 455.528 L 599.758 301.623 L 564.351 301.623 L 564.351 420.579 L 243.316 420.579 L 243.316 218.473 L 445.423 218.473 L 445.423 301.623 L 326.894 301.623 L 326.894 337.001 L 480.772 337.001 L 480.772 218.473 L 683.338 218.473 L 683.338 539.08 L 124.787 539.08 Z" style=""/>
  <path class="cls-1" d="M 641.319 574.457 C 629.813 574.457 620.023 578.608 611.894 586.851 C 603.794 595.094 599.73 604.969 599.73 616.475 C 599.73 627.983 603.765 637.771 611.894 645.9 C 619.995 654 629.813 658.065 641.319 658.065 C 652.825 658.065 662.7 654.03 670.943 645.9 C 679.187 637.771 683.338 627.983 683.338 616.475 C 683.338 604.969 679.187 595.094 670.943 586.851 C 662.7 578.608 652.825 574.457 641.319 574.457 Z" style=""/>
  <path class="cls-1" d="M 762.937 337.001 L 762.937 539.08 L 881.895 539.08 L 881.895 574.457 L 762.937 574.457 L 762.937 657.607 L 965.445 657.607 L 965.445 337.001 L 762.937 337.001 Z M 897.896 502.011 L 829.573 502.011 L 846.517 421.123 L 846.517 420.952 C 829.973 411.534 824.334 390.096 834.124 373.552 C 847.519 350.968 880.579 351.169 893.574 374.038 C 902.819 390.267 897.58 410.762 881.895 420.35 L 881.895 425.589 L 897.896 502.011 Z" style=""/>
  <path class="cls-1" d="M 1119.35 337.001 L 1119.35 574.457 L 1000.82 574.457 L 1000.82 657.607 L 1202.93 657.607 L 1202.93 337.001 L 1119.35 337.001 Z" style=""/>
  <path class="cls-1" d="M 1309.27 705.579 C 1301.16 697.48 1291.35 693.415 1279.84 693.415 C 1268.33 693.415 1258.55 697.45 1250.47 705.579 C 1242.37 713.679 1238.28 723.497 1238.28 735.004 C 1238.28 746.51 1242.35 756.271 1250.47 764.371 C 1258.55 772.471 1268.36 776.565 1279.84 776.565 C 1291.32 776.565 1301.14 772.5 1309.27 764.371 C 1317.37 756.271 1321.43 746.482 1321.43 735.004 C 1321.43 723.526 1317.39 713.709 1309.27 705.579 Z M 1309.27 586.851 C 1301.16 578.608 1291.35 574.457 1279.84 574.457 C 1268.33 574.457 1258.55 578.608 1250.47 586.851 C 1242.37 595.094 1238.28 604.969 1238.28 616.475 C 1238.28 627.983 1242.35 637.771 1250.47 645.9 C 1258.55 654 1268.36 658.065 1279.84 658.065 C 1291.32 658.065 1301.14 654.03 1309.27 645.9 C 1317.37 637.801 1321.43 627.983 1321.43 616.475 C 1321.43 604.969 1317.39 595.094 1309.27 586.851 Z M 1238.31 337.001 L 1238.31 455.528 L 1123.79 455.528 L 1123.79 539.08 L 1321.43 539.08 L 1321.43 337.001 L 1238.31 337.001 Z" style=""/>
  <path class="cls-1" d="M 1712.33 218.473 L 1712.33 337.001 L 1558.45 337.001 L 1558.45 301.623 L 1676.99 301.623 L 1676.99 218.473 L 1474.88 218.473 L 1474.88 420.579 L 1795.95 420.579 L 1795.95 301.623 L 1831.32 301.623 L 1831.32 455.528 L 1360.79 455.528 L 1360.79 539.08 L 1914.9 539.08 L 1914.9 218.473 L 1712.33 218.473 Z" style=""/>
  <text class="cls-2" style="white-space: pre;" x="1368.83" y="700.055"><tspan x="1368.83" y="700.055" style="font-size: 126.5px; word-spacing: 0px;">cairo key </tspan></text>
  <path class="cls-1" d="M 1415.97 241.715 C 1417.09 231.381 1420.58 221.678 1423.62 211.861 C 1423.59 211.517 1422.1 211.23 1421.81 211.26 C 1420.04 211.517 1415.91 221.736 1413.97 223.224 L 1413.97 211.832 C 1413.97 211.345 1415.52 209.743 1413.45 210.058 C 1413.25 211.345 1412.45 213.149 1410.91 213.091 L 1410.91 200.154 C 1410.28 199.438 1409.56 199.094 1408.62 198.923 C 1400.86 197.434 1388.24 197.492 1380.22 197.864 C 1378.22 197.95 1367.23 198.894 1366.43 199.552 C 1366.37 199.61 1365.28 201.069 1365.28 201.184 L 1365.28 215.124 L 1361.22 210.058 L 1361.47 222.222 C 1359.44 220.161 1357.44 213.978 1355.66 212.29 C 1353.06 209.857 1352.83 212.29 1353.35 214.637 C 1354.55 220.219 1357.27 225.914 1358.53 231.753 C 1360.99 243.088 1360.19 253.221 1360.19 264.526 C 1360.19 319.426 1359.84 374.554 1360.19 429.309 C 1360.24 439.185 1360.79 449.059 1360.79 458.963 L 1360.79 474.19 L 1363.76 474.19 L 1363.76 469.64 C 1365.45 470.499 1365.88 472.645 1366.8 474.19 L 1379.48 474.19 L 1375.96 469.439 L 1380.22 465.089 L 1385.03 470.384 L 1381.51 474.19 L 1393.16 474.19 L 1389.64 470.412 L 1394.51 465.603 C 1399.71 469.009 1399.43 470.069 1395.19 474.19 L 1408.9 474.19 C 1409.5 473.532 1410.76 469.868 1411.68 470.126 C 1412.31 470.326 1413.31 473.331 1412.94 474.19 L 1415.48 474.19 C 1415.48 467.979 1415.48 461.739 1415.46 455.528 C 1415.46 448.487 1415.4 441.417 1415.46 434.376 C 1415.91 370.318 1416.2 306.031 1415.97 241.715 Z M 1401.78 435.148 C 1401 435.692 1396.51 430.397 1396.77 429.424 L 1407.87 413.367 C 1407.96 414.941 1409.53 416.4 1409.82 417.803 C 1410.56 421.611 1403.43 431.342 1401.78 435.148 Z M 1411.31 423.642 C 1411.62 423.156 1411.25 422.727 1412.45 422.984 C 1413.37 429.71 1410.62 436.609 1407.13 442.248 C 1401.46 437.382 1404.89 436.294 1407.44 431.428 C 1408.73 429.052 1409.9 425.818 1411.31 423.642 Z M 1394.45 427.535 L 1389.7 421.296 L 1400.77 404.752 C 1401.66 404.093 1405.84 409.874 1405.61 410.876 L 1394.45 427.535 Z M 1386.95 292.319 C 1387.29 291.833 1386.92 291.404 1388.09 291.661 L 1392.67 301.537 C 1392.62 302.137 1388.89 308.749 1388.21 309.78 C 1387.89 310.266 1388.27 310.696 1387.09 310.439 L 1382.51 301.107 C 1382.57 300.591 1386.4 293.208 1386.95 292.319 Z M 1380.74 297.759 L 1375.61 287.369 L 1379.99 277.493 C 1380.54 277.064 1385.55 287.225 1385.6 288.399 L 1380.74 297.759 Z M 1388.09 317.021 C 1393.76 327.927 1400.77 338.202 1405.32 349.68 C 1400.6 359.642 1394.93 370.461 1388.24 379.249 C 1388.04 379.534 1388.27 380.192 1387.35 379.907 C 1386.2 379.534 1376.07 362.303 1374.81 359.957 C 1373.01 356.492 1371.32 352.915 1370.06 349.222 C 1374.93 338.288 1380.91 327.927 1386.84 317.537 L 1388.09 317.021 Z M 1387.84 385.459 L 1399.69 401.861 L 1387.09 418.919 L 1375.59 401.46 L 1387.84 385.459 Z M 1394.19 389.524 L 1389.7 382.31 L 1407.36 353.03 C 1407.59 354.832 1409.62 357.867 1409.76 359.441 C 1410.02 362.217 1404.04 374.124 1402.38 377.187 C 1401.8 378.275 1394.88 390.01 1394.19 389.524 Z M 1389.27 313.731 L 1394.19 304.341 C 1395.25 304.943 1395.88 306.346 1396.48 307.376 C 1399.66 312.958 1408.7 330.217 1409.68 335.769 C 1410.28 339.061 1408.24 342.325 1407.36 345.416 L 1389.27 313.731 Z M 1394.19 297.759 L 1389.61 287.913 L 1395.19 277.493 L 1399.66 287.797 C 1398.17 291.233 1396.8 294.982 1394.19 297.759 Z M 1389.3 259.49 L 1394.7 248.068 C 1395.36 247.582 1399.74 257.972 1399.8 258.974 C 1399.91 261.836 1395.82 267.274 1395.19 270.365 L 1389.3 259.49 Z M 1393.05 274.087 C 1391.3 276.835 1390.41 281.243 1388.52 283.734 C 1388.09 284.306 1388.01 284.764 1387.09 284.563 L 1382.11 273.772 C 1383.91 270.795 1385.14 266.76 1386.95 263.926 C 1387.29 263.44 1386.92 263.039 1388.09 263.296 L 1393.05 274.087 Z M 1379.99 270.365 L 1375.53 259.06 L 1380.22 248.584 L 1385.89 259.49 C 1383.94 263.039 1382.6 267.36 1379.99 270.365 Z M 1378.45 274.145 C 1378.42 274.631 1374.98 282.188 1374.53 282.903 C 1374.21 283.39 1374.58 283.818 1373.38 283.561 C 1373.1 280.413 1370.23 276.835 1370.32 273.687 C 1370.38 272.256 1372.61 265.987 1373.35 264.498 C 1373.61 263.984 1373.1 263.554 1374.38 263.783 L 1378.45 274.145 Z M 1374.38 291.661 L 1378.88 301.48 L 1364.28 331.218 C 1361.73 319.397 1366.94 306.974 1371.63 296.241 C 1372.15 295.067 1372.75 293.293 1373.27 292.319 C 1373.58 291.747 1373.24 291.462 1374.38 291.661 Z M 1379.88 305.515 C 1380.05 305.228 1380.65 304.084 1380.99 304.341 L 1385.49 314.102 C 1379.71 324.436 1373.35 334.452 1368.83 345.416 L 1365.83 337.001 C 1369.43 326.983 1374.24 314.56 1379.88 305.515 Z M 1368.83 353.516 C 1368.83 353.516 1369.55 356.006 1369.92 356.751 C 1374.33 365.71 1379.88 374.068 1385.49 382.31 L 1380.74 389.524 C 1375.38 381.853 1369.83 372.637 1367.03 363.677 C 1365.71 359.383 1365.88 358.411 1367.77 354.232 C 1367.97 353.774 1367.97 352.686 1368.83 353.516 Z M 1371.26 380.221 C 1372.44 382.34 1378.22 390.697 1378.39 391.927 C 1378.65 393.617 1374.58 396.536 1374.38 398.654 C 1373.58 399.198 1369.32 390.125 1368.89 389.209 C 1365.51 381.537 1362.65 373.123 1363.76 364.678 L 1371.26 380.221 Z M 1371.86 401.46 L 1367.83 406.755 C 1364.99 399.312 1362.93 391.499 1363.25 383.456 L 1371.86 401.46 Z M 1366.17 410.161 L 1363.76 413.853 L 1363.25 403.72 L 1366.17 410.161 Z M 1363.76 422.984 L 1371.69 437.439 C 1371.38 438.326 1368.54 442.304 1367.83 441.732 C 1365.57 435.836 1362.62 429.395 1363.76 422.984 Z M 1365.85 417.803 C 1366.05 416.629 1367.54 415.37 1367.31 413.853 C 1368.2 413.682 1368.32 414.14 1368.74 414.712 C 1369.72 415.971 1370.69 418.375 1371.66 419.893 C 1373.75 423.185 1375.99 426.39 1378.28 429.568 L 1374.38 435.148 L 1373.35 434.833 C 1371.81 430.999 1365.19 421.667 1365.85 417.803 Z M 1375.41 420.208 C 1374.27 418.49 1370.38 412.365 1370.06 410.82 C 1369.72 409.274 1373.55 404.007 1373.9 404.236 L 1385.4 421.209 L 1380.71 427.02 C 1379.99 427.22 1379.88 426.561 1379.56 426.218 C 1378.48 425.074 1376.39 421.725 1375.41 420.208 Z M 1387.38 424.014 L 1392.53 429.825 L 1388.09 436.18 C 1387.09 436.866 1383.51 431.113 1382.6 430.254 L 1387.38 424.014 Z M 1400.77 398.654 C 1400.52 396.508 1396.37 393.503 1396.91 391.556 C 1397.48 389.609 1402.95 382.368 1404.41 379.735 C 1406.87 375.327 1408.47 370.547 1410.68 366.224 C 1410.96 365.623 1411.13 364.822 1411.94 364.678 C 1413.62 369.745 1411.99 374.755 1410.42 379.649 C 1409.9 381.28 1402.35 399.685 1400.77 398.654 Z M 1411.42 355.033 L 1408.93 349.222 L 1411.68 341.867 C 1413.77 346.331 1412.71 350.568 1411.42 355.033 Z M 1411.94 331.734 L 1396.45 301.336 L 1401.55 291.175 C 1403.89 296.871 1406.73 302.452 1408.76 308.291 C 1411.51 316.077 1413.97 323.434 1411.94 331.734 Z M 1396.74 274.145 L 1401.55 263.267 L 1405.7 273.744 L 1401.78 284.077 C 1401.03 284.621 1397.2 275.032 1396.74 274.145 Z M 1403.43 259.403 L 1406.87 249.586 C 1407.82 250.13 1408.21 252.219 1408.53 253.249 C 1408.99 254.853 1410.19 258.659 1410.25 260.062 C 1410.3 262.667 1407.96 266.559 1407.87 269.364 C 1406.58 269.564 1407.07 269.249 1406.81 268.649 C 1405.53 265.787 1404.87 262.266 1403.43 259.403 Z M 1401.78 255.168 L 1396.82 244.348 C 1398.97 240.912 1399.77 236.39 1402.29 233.357 C 1402.29 236.534 1405.72 241.514 1405.78 244.262 C 1405.84 246.523 1402.09 252.42 1401.78 255.168 Z M 1394.7 240.97 L 1389.21 229.149 L 1395.96 217.642 L 1400.29 229.035 C 1400.37 230.294 1395.28 241.428 1394.7 240.97 Z M 1393.16 244.319 L 1388.09 256.169 L 1382.05 244.776 L 1387.09 232.871 L 1393.16 244.319 Z M 1379.99 240.97 L 1374.93 229.521 L 1378.48 218.157 L 1385.52 229.549 L 1379.99 240.97 Z M 1378.42 244.776 L 1374.41 255.168 C 1373.69 255.11 1373.58 254.423 1373.35 253.936 C 1372.58 252.219 1370.38 246.352 1370.32 244.748 C 1370.29 243.461 1373.01 234.158 1373.64 233.872 L 1378.42 244.776 Z M 1372.24 259.06 L 1368.83 268.85 C 1367.34 267.218 1365.83 262.123 1365.77 259.976 C 1365.77 259.175 1368.03 249.586 1368.57 249.586 L 1372.24 259.06 Z M 1368.83 278.495 L 1372.27 287.797 L 1363.73 308.921 L 1363.22 303.568 C 1364.11 295.784 1365.14 286.795 1368.06 279.496 C 1368.26 279.011 1368.14 278.352 1368.83 278.495 Z M 1363.76 342.381 C 1364.82 343.355 1366.63 348.078 1366.65 349.308 C 1366.71 350.653 1364.88 353.001 1364.77 354.547 L 1363.22 348.192 L 1363.76 342.381 Z M 1363.25 439.213 C 1364.02 439.871 1366.17 444.022 1366.2 444.623 C 1366.25 445.424 1365.02 446.656 1364.51 447.314 C 1363.53 447.371 1363.05 440.158 1363.25 439.213 Z M 1365.83 451.636 C 1365.85 451.064 1367.43 446.999 1368.32 447.828 L 1371.78 453.668 C 1371.61 453.954 1371.06 454.755 1370.4 455.528 C 1369.46 456.702 1368.32 457.905 1367.83 457.475 C 1367.86 456.817 1367.66 456.187 1367.34 455.528 C 1366.77 454.183 1365.8 452.838 1365.83 451.636 Z M 1370.03 445.052 L 1373.64 440.244 L 1377.96 446.57 L 1374.15 451.377 C 1373.07 451.608 1370.66 446.14 1370.03 445.052 Z M 1375.93 437.925 L 1379.99 432.115 L 1385.06 438.44 C 1385.06 439.643 1380.31 444.508 1379.99 444.279 L 1375.93 437.925 Z M 1387.09 440.73 L 1392.62 446.626 L 1387.35 452.895 L 1382.6 446.656 C 1382.77 444.737 1386.86 442.82 1387.09 440.73 Z M 1389.67 438.898 L 1394.51 432.629 C 1395.51 432.43 1398.68 436.895 1399.26 437.925 L 1394.45 444.279 L 1389.67 438.898 Z M 1400.86 440.845 L 1402.2 440.845 L 1405.32 445.568 L 1400.77 451.893 L 1396.88 446.57 L 1400.86 440.845 Z M 1403.41 454.183 L 1407.61 447.828 C 1410.65 450.691 1409.88 452.895 1408.64 455.528 C 1408.21 456.444 1407.76 457.417 1407.36 458.477 L 1404.64 455.528 L 1403.41 454.183 Z M 1409.5 444.623 L 1412.94 438.211 C 1413.25 441.674 1412.62 444.966 1411.94 448.344 C 1411.02 447.828 1409.42 445.51 1409.5 444.623 Z M 1412.94 410.047 C 1412.82 411.191 1411.77 412.994 1411.94 414.369 C 1410.59 413.538 1409.96 411.506 1409.45 410.047 L 1412.94 402.204 C 1412.77 404.722 1413.22 407.584 1412.94 410.047 Z M 1412.94 389.266 C 1412.57 392.987 1409.73 403.835 1407.61 406.755 C 1407.41 407.012 1406.9 407.642 1406.87 407.012 L 1403.49 401.431 L 1412.94 381.91 C 1412.77 384.285 1413.17 386.947 1412.94 389.266 Z M 1412.94 310.925 L 1403.41 288.256 L 1406.87 278.495 C 1407.82 279.039 1408.19 281.128 1408.53 282.158 C 1411.48 291.432 1413.4 301.165 1412.94 310.925 Z M 1412.94 285.593 L 1409.05 274.115 L 1411.42 266.33 C 1412.16 266.188 1412.08 267.274 1412.19 267.818 C 1413.37 273.687 1412.85 279.641 1412.94 285.593 Z M 1411.94 253.65 L 1409.05 244.692 L 1411.68 235.904 C 1413.34 241.657 1413.34 247.839 1411.94 253.65 Z M 1410.68 219.675 C 1412.22 219.56 1410.91 220.219 1410.91 220.448 C 1410.91 223.224 1411.31 227.546 1410.91 230.065 C 1410.53 232.612 1408.04 236.649 1407.61 239.453 L 1403.84 229.549 L 1410.68 219.675 Z M 1367.8 203.187 C 1367.94 202.444 1368.03 202.386 1368.66 202.015 C 1369.49 201.499 1374.78 201.013 1376.19 200.927 C 1384 200.411 1392.67 200.411 1400.52 200.927 C 1402.98 201.098 1405.93 201.527 1408.39 201.928 L 1408.39 217.9 L 1402.29 225.771 L 1396.97 210.544 L 1387.35 226.259 L 1377.7 210.544 L 1372.64 225.743 C 1372.24 225.743 1368.23 219.56 1368.09 219.159 C 1367.6 217.728 1367.48 204.933 1367.8 203.187 Z M 1364.77 219.675 L 1371.41 230.065 L 1368.57 238.939 C 1367.43 236.619 1366.05 233.357 1365.51 230.866 C 1365.37 230.207 1364.77 227.375 1364.77 227.031 L 1364.77 219.675 Z M 1363.76 236.42 C 1364.94 237.678 1366.65 242.173 1366.77 243.833 C 1366.97 246.494 1364.8 249.843 1364.77 252.649 C 1364.05 253.393 1363.85 252.591 1363.76 251.876 C 1363.11 246.695 1363.68 241.6 1363.76 236.42 Z M 1363.25 270.624 C 1363.31 269.937 1363.62 268.563 1363.76 267.589 C 1363.85 266.903 1364.02 266.015 1364.77 266.816 L 1366.77 273.715 L 1363.25 284.563 C 1363.53 280.069 1362.85 275.088 1363.25 270.624 Z M 1364.28 462.542 C 1363.99 460.079 1362.91 457.989 1363.73 455.528 C 1363.73 455.5 1363.76 455.472 1363.76 455.442 L 1363.76 455.528 C 1363.76 455.528 1366.2 460.366 1366.2 460.366 C 1366.43 460.996 1364.45 462.712 1364.28 462.542 Z M 1369.09 471.643 C 1368.71 471.643 1366.31 467.006 1366.28 466.291 C 1366.25 465.489 1367.43 462.827 1368.32 463.543 L 1371.29 468.981 L 1369.09 471.643 Z M 1373.41 467.092 L 1369.95 460.767 L 1373.9 456.444 L 1377.96 462.799 C 1377.96 463.686 1374.01 467.55 1373.41 467.092 Z M 1379.94 460.193 L 1376.85 455.528 L 1375.93 454.155 L 1380.25 448.86 L 1385.06 455.185 L 1384.8 455.528 L 1380.99 460.508 L 1379.94 460.193 Z M 1387.35 468.122 L 1382.57 462.857 C 1383.31 461.968 1387.09 456.759 1388.09 457.475 L 1392.56 462.77 L 1387.35 468.122 Z M 1394.45 460.508 L 1390.3 455.528 L 1389.67 454.755 L 1394.48 449.374 C 1395.34 449.203 1399.26 453.611 1399.17 454.585 L 1398.43 455.528 L 1394.45 460.508 Z M 1400.29 467.092 L 1396.85 462.799 L 1401.55 456.959 L 1405.18 461.281 C 1404.78 462.198 1401.4 467.922 1400.29 467.092 Z M 1406.1 472.159 L 1403.35 468.953 L 1406.87 464.057 C 1411.51 465.518 1408.3 469.84 1406.1 472.159 Z M 1411.42 463.543 C 1407.93 461.396 1410.25 457.905 1412.34 455.528 L 1412.42 455.442 C 1412.42 455.442 1412.42 455.5 1412.42 455.528 C 1413.42 458.419 1412.14 460.767 1411.39 463.543 L 1411.42 463.543 Z" style=""/>
  <path class="cls-1" d="M 1390.18 44.817 C 1389.44 45.675 1390.61 55.293 1390.67 57.182 C 1391.18 78.564 1389.12 102.063 1391.21 123.044 C 1391.36 124.447 1393.96 134.951 1394.45 135.523 C 1395.28 136.525 1397.57 135.752 1398.91 136.123 C 1402.66 137.183 1400.89 149.548 1401.29 152.754 C 1402 152.782 1402.78 152.639 1403.46 152.84 C 1405.24 153.384 1407.01 159.795 1406.44 161.799 L 1409.47 162.686 C 1409.33 164.089 1410.82 166.265 1410.88 167.18 C 1410.93 167.867 1410.39 168.812 1410.39 169.727 C 1410.42 172.417 1410.48 175.109 1410.33 177.799 L 1409.36 178.429 C 1395.19 176.512 1380.42 176.311 1366.28 178.63 C 1366.28 174.565 1366.63 170.757 1365.37 166.837 C 1367.23 164.46 1366.28 161.542 1370.32 161.885 C 1370.26 158.422 1369.57 156.905 1371.86 154.042 C 1373.15 152.439 1374.7 152.926 1374.9 152.754 C 1375.44 152.24 1374.81 139.959 1375.64 138.042 C 1376.5 135.38 1379.85 136.153 1381.97 135.981 C 1383.34 130.342 1385.17 124.875 1385.57 119.037 C 1386.58 103.38 1385.89 85.29 1386.12 69.375 C 1386.23 61.275 1385.98 53.174 1386.12 45.074 C 1375.82 42.184 1382.25 36.087 1390.36 37.203 C 1396.97 38.119 1397.02 44.358 1390.18 44.817 Z M 1377.96 139.817 L 1377.96 152.24 C 1384.89 151.152 1391.84 151.065 1398.74 152.24 L 1398.2 139.072 C 1397.57 138.414 1383.71 138.357 1381.71 138.528 C 1380.37 138.643 1378.91 138.787 1377.93 139.817 L 1377.96 139.817 Z M 1403.32 157.82 C 1393.36 156.618 1382.94 155.931 1373.12 158.278 L 1372.89 161.369 L 1403.32 161.369 C 1403.32 161.369 1403.32 157.82 1403.32 157.82 Z" style=""/>
  <path class="cls-1" d="M 1410.3 182.265 C 1411.19 183.266 1411.22 185.756 1409.7 185.985 C 1407.38 186.358 1400.95 184.784 1398.03 184.64 C 1387.72 184.182 1376.79 184.64 1366.6 186.099 C 1364.51 184.726 1365.45 182.207 1367.68 181.721 C 1370.89 181.034 1377.27 180.719 1380.74 180.575 C 1390.44 180.175 1400.74 180.776 1410.3 182.235 L 1410.3 182.265 Z" style=""/>
</svg>