<?xml version="1.0" encoding="utf-8"?>
<svg id="Layer_1" data-name="Layer 1" xmlns="http://www.w3.org/2000/svg" viewBox="0 209.18 1931.953 715.429">
  <defs>
    <style>
      .cls-1 {
        font-family: FONTSPRINGDEMO-FractulAltBold, 'FONTSPRING DEMO - Fractul Alt';
        font-size: 44.21px;
        font-weight: 700;
      }

      .cls-1, .cls-2 {
        fill: #f6f4ef;
      }
    </style>
  </defs>
  <g transform="matrix(0.971391, 0, 0, 0.971391, 39.307333, 43.45061)" style="">
    <path class="cls-2" d="M 523.032 703.961 C 511.699 703.961 501.974 708.048 493.856 716.167 C 485.737 724.286 481.649 734.01 481.649 745.344 C 481.649 756.676 485.737 766.315 493.856 774.322 C 501.974 782.299 511.699 786.302 523.032 786.302 C 534.364 786.302 544.004 782.327 552.01 774.322 C 559.987 766.345 563.99 756.676 563.99 745.344 C 563.99 734.01 560.016 724.286 552.01 716.167 C 544.032 708.048 534.364 703.961 523.032 703.961 Z" style=""/>
    <path class="cls-2" d="M 131.029 669.12 L 131.029 552.415 L 96.215 552.415 L 96.215 703.961 L 446.807 703.961 L 446.807 786.302 L 273.752 786.302 L 252.075 744.751 L 230.792 770.602 L 238.938 786.302 L 232.877 786.302 L 199.389 722.341 L 177.429 749.544 L 196.654 786.302 L 190.622 786.302 L 149.268 712.277 C 133.227 736.943 117.188 761.608 101.149 786.302 L 13.902 786.302 L 13.902 470.101 L 212.919 470.101 L 212.919 586.834 L 598.805 586.834 L 598.805 435.259 L 563.934 435.259 L 563.934 552.415 L 247.761 552.415 L 247.761 353.37 L 446.807 353.37 L 446.807 435.259 L 330.075 435.259 L 330.075 470.101 L 481.622 470.101 L 481.622 353.37 L 681.118 353.37 L 681.118 669.12 L 131.029 669.12 Z" style=""/>
    <path class="cls-2" d="M 639.736 703.961 C 628.403 703.961 618.762 708.048 610.756 716.167 C 602.78 724.286 598.776 734.01 598.776 745.344 C 598.776 756.676 602.75 766.315 610.756 774.322 C 618.734 782.299 628.403 786.302 639.736 786.302 C 651.068 786.302 660.792 782.327 668.911 774.322 C 677.029 766.345 681.118 756.676 681.118 745.344 C 681.118 734.01 677.029 724.286 668.911 716.167 C 660.792 708.048 651.068 703.961 639.736 703.961 Z" style=""/>
    <path class="cls-2" d="M 759.513 470.101 L 759.513 669.12 L 876.667 669.12 L 876.667 703.961 L 759.513 703.961 L 759.513 785.852 L 958.953 785.852 L 958.953 470.101 L 759.513 470.101 Z M 892.426 632.615 L 825.137 632.615 L 841.825 552.95 L 841.825 552.781 C 825.532 543.507 819.979 522.393 829.619 506.099 C 842.812 483.858 875.371 484.056 888.17 506.579 C 897.275 522.562 892.115 542.747 876.667 552.188 L 876.667 557.348 L 892.426 632.615 Z" style=""/>
    <path class="cls-2" d="M 1110.53 470.101 L 1110.53 703.961 L 993.794 703.961 L 993.794 785.852 L 1192.84 785.852 L 1192.84 470.101 L 1110.53 470.101 Z" style=""/>
    <path class="cls-2" d="M 1297.57 833.097 C 1289.59 825.12 1279.92 821.116 1268.59 821.116 C 1257.26 821.116 1247.61 825.091 1239.67 833.097 C 1231.69 841.075 1227.65 850.743 1227.65 862.075 C 1227.65 873.407 1231.65 883.019 1239.67 890.998 C 1247.61 898.976 1257.28 903.007 1268.59 903.007 C 1279.89 903.007 1289.55 899.003 1297.57 890.998 C 1305.54 883.019 1309.55 873.38 1309.55 862.075 C 1309.55 850.772 1305.57 841.102 1297.57 833.097 Z M 1297.57 716.167 C 1289.59 708.048 1279.92 703.961 1268.59 703.961 C 1257.26 703.961 1247.61 708.048 1239.67 716.167 C 1231.69 724.286 1227.65 734.01 1227.65 745.344 C 1227.65 756.676 1231.65 766.315 1239.67 774.322 C 1247.61 782.299 1257.28 786.302 1268.59 786.302 C 1279.89 786.302 1289.55 782.327 1297.57 774.322 C 1305.54 766.345 1309.55 756.676 1309.55 745.344 C 1309.55 734.01 1305.57 724.286 1297.57 716.167 Z M 1227.69 470.101 L 1227.69 586.834 L 1114.9 586.834 L 1114.9 669.12 L 1309.55 669.12 L 1309.55 470.101 L 1227.69 470.101 Z" style=""/>
    <path class="cls-2" d="M 1694.53 353.37 L 1694.53 470.101 L 1542.97 470.101 L 1542.97 435.259 L 1659.72 435.259 L 1659.72 353.37 L 1460.67 353.37 L 1460.67 552.415 L 1776.87 552.415 L 1776.87 435.259 L 1811.7 435.259 L 1811.7 586.834 L 1348.31 586.834 L 1348.31 669.12 L 1894.02 669.12 L 1894.02 353.37 L 1694.53 353.37 Z" style=""/>
    <text class="cls-1" style="white-space: pre;" x="1356.22" y="827.657"><tspan x="1356.22" y="827.657" style="font-size: 124.6px; word-spacing: 0px;">cairo key </tspan></text>
    <path class="cls-2" d="M 1402.66 376.259 C 1403.75 366.082 1407.19 356.527 1410.18 346.858 C 1410.15 346.519 1408.69 346.238 1408.4 346.265 C 1406.66 346.519 1402.6 356.584 1400.68 358.049 L 1400.68 346.828 C 1400.68 346.35 1402.2 344.771 1400.18 345.082 C 1399.98 346.35 1399.19 348.126 1397.66 348.07 L 1397.66 335.329 C 1397.04 334.623 1396.34 334.285 1395.41 334.116 C 1387.77 332.651 1375.33 332.706 1367.45 333.074 C 1365.47 333.158 1354.64 334.089 1353.85 334.737 C 1353.81 334.792 1352.73 336.229 1352.73 336.343 L 1352.73 350.07 L 1348.72 345.082 L 1348.98 357.062 C 1346.98 355.033 1345.01 348.944 1343.26 347.281 C 1340.7 344.884 1340.47 347.281 1340.97 349.591 C 1342.16 355.089 1344.84 360.699 1346.08 366.449 C 1348.5 377.612 1347.71 387.59 1347.71 398.726 C 1347.71 452.793 1347.37 507.086 1347.71 561.013 C 1347.77 570.739 1348.31 580.464 1348.31 590.217 L 1348.31 605.214 L 1351.24 605.214 L 1351.24 600.733 C 1352.91 601.577 1353.33 603.692 1354.22 605.214 L 1366.72 605.214 L 1363.24 600.535 L 1367.45 596.248 L 1372.18 601.465 L 1368.72 605.214 L 1380.18 605.214 L 1376.72 601.492 L 1381.52 596.756 C 1386.64 600.112 1386.36 601.154 1382.19 605.214 L 1395.69 605.214 C 1396.29 604.565 1397.52 600.958 1398.43 601.211 C 1399.04 601.408 1400.04 604.367 1399.66 605.214 L 1402.17 605.214 C 1402.17 599.097 1402.17 592.951 1402.14 586.834 C 1402.14 579.9 1402.09 572.937 1402.14 566.002 C 1402.6 502.914 1402.88 439.602 1402.66 376.259 Z M 1388.67 566.764 C 1387.91 567.299 1383.48 562.084 1383.74 561.124 L 1394.68 545.31 C 1394.77 546.862 1396.31 548.299 1396.6 549.681 C 1397.33 553.429 1390.31 563.015 1388.67 566.764 Z M 1398.06 555.43 C 1398.37 554.952 1398 554.529 1399.19 554.782 C 1400.09 561.407 1397.38 568.2 1393.94 573.755 C 1388.36 568.962 1391.75 567.891 1394.25 563.099 C 1395.52 560.759 1396.68 557.573 1398.06 555.43 Z M 1381.45 559.265 L 1376.77 553.119 L 1387.68 536.827 C 1388.56 536.177 1392.68 541.873 1392.45 542.858 L 1381.45 559.265 Z M 1374.08 426.098 C 1374.41 425.62 1374.04 425.197 1375.2 425.449 L 1379.71 435.175 C 1379.65 435.767 1375.99 442.279 1375.31 443.294 C 1375 443.772 1375.37 444.195 1374.21 443.942 L 1369.7 434.752 C 1369.76 434.244 1373.54 426.971 1374.08 426.098 Z M 1367.95 431.453 L 1362.91 421.222 L 1367.22 411.496 C 1367.75 411.073 1372.69 421.08 1372.74 422.236 L 1367.95 431.453 Z M 1375.2 450.426 C 1380.78 461.165 1387.68 471.286 1392.17 482.588 C 1387.52 492.4 1381.93 503.054 1375.33 511.709 C 1375.14 511.991 1375.37 512.64 1374.47 512.357 C 1373.33 511.991 1363.35 495.022 1362.12 492.709 C 1360.35 489.297 1358.68 485.775 1357.43 482.138 C 1362.23 471.37 1368.12 461.165 1373.96 450.932 L 1375.2 450.426 Z M 1374.94 517.826 L 1386.62 533.979 L 1374.21 550.779 L 1362.87 533.585 L 1374.94 517.826 Z M 1381.2 521.83 L 1376.77 514.726 L 1394.17 485.888 C 1394.39 487.663 1396.39 490.651 1396.54 492.203 C 1396.79 494.937 1390.9 506.663 1389.27 509.68 C 1388.7 510.751 1381.88 522.308 1381.2 521.83 Z M 1376.35 447.184 L 1381.2 437.937 C 1382.25 438.53 1382.87 439.911 1383.46 440.926 C 1386.58 446.422 1395.5 463.421 1396.45 468.89 C 1397.04 472.132 1395.04 475.345 1394.17 478.389 L 1376.35 447.184 Z M 1381.2 431.453 L 1376.69 421.757 L 1382.19 411.496 L 1386.58 421.643 C 1385.12 425.027 1383.77 428.72 1381.2 431.453 Z M 1376.38 393.765 L 1381.71 382.517 C 1382.35 382.037 1386.67 392.27 1386.73 393.257 C 1386.83 396.076 1382.81 401.432 1382.19 404.478 L 1376.38 393.765 Z M 1380.08 408.141 C 1378.35 410.848 1377.48 415.188 1375.62 417.641 C 1375.2 418.205 1375.12 418.655 1374.21 418.458 L 1369.31 407.831 C 1371.08 404.9 1372.29 400.924 1374.08 398.133 C 1374.41 397.655 1374.04 397.26 1375.2 397.514 L 1380.08 408.141 Z M 1367.22 404.478 L 1362.83 393.342 L 1367.45 383.025 L 1373.03 393.765 C 1371.1 397.26 1369.79 401.516 1367.22 404.478 Z M 1365.7 408.198 C 1365.66 408.677 1362.29 416.119 1361.83 416.824 C 1361.53 417.303 1361.89 417.726 1360.7 417.473 C 1360.43 414.371 1357.6 410.848 1357.69 407.747 C 1357.75 406.337 1359.95 400.164 1360.68 398.697 C 1360.93 398.191 1360.43 397.766 1361.7 397.994 L 1365.7 408.198 Z M 1361.7 425.449 L 1366.12 435.119 L 1351.74 464.407 C 1349.24 452.765 1354.37 440.53 1358.99 429.96 C 1359.49 428.804 1360.09 427.057 1360.6 426.098 C 1360.91 425.533 1360.56 425.253 1361.7 425.449 Z M 1367.1 439.093 C 1367.28 438.812 1367.87 437.684 1368.2 437.937 L 1372.64 447.551 C 1366.93 457.727 1360.68 467.594 1356.22 478.389 L 1353.27 470.101 C 1356.82 460.236 1361.56 448.001 1367.1 439.093 Z M 1356.22 486.367 C 1356.22 486.367 1356.93 488.819 1357.29 489.553 C 1361.64 498.375 1367.1 506.608 1372.64 514.726 L 1367.95 521.83 C 1362.68 514.275 1357.21 505.198 1354.45 496.374 C 1353.16 492.146 1353.33 491.188 1355.18 487.073 C 1355.37 486.62 1355.37 485.55 1356.22 486.367 Z M 1358.62 512.669 C 1359.78 514.753 1365.47 522.984 1365.64 524.196 C 1365.89 525.861 1361.89 528.736 1361.7 530.821 C 1360.91 531.358 1356.7 522.422 1356.29 521.519 C 1352.95 513.965 1350.14 505.677 1351.24 497.36 L 1358.62 512.669 Z M 1359.22 533.585 L 1355.24 538.799 C 1352.45 531.469 1350.41 523.773 1350.73 515.853 L 1359.22 533.585 Z M 1353.6 542.154 L 1351.24 545.791 L 1350.73 535.811 L 1353.6 542.154 Z M 1351.24 554.782 L 1359.04 569.018 C 1358.73 569.893 1355.95 573.81 1355.24 573.246 C 1353.01 567.44 1350.1 561.097 1351.24 554.782 Z M 1353.29 549.681 C 1353.49 548.525 1354.95 547.283 1354.74 545.791 C 1355.6 545.621 1355.72 546.072 1356.14 546.635 C 1357.1 547.877 1358.06 550.245 1359.02 551.738 C 1361.08 554.98 1363.27 558.138 1365.53 561.266 L 1361.7 566.764 L 1360.68 566.453 C 1359.16 562.676 1352.64 553.487 1353.29 549.681 Z M 1362.71 552.049 C 1361.58 550.356 1357.75 544.326 1357.43 542.802 C 1357.1 541.28 1360.87 536.093 1361.22 536.318 L 1372.55 553.035 L 1367.93 558.758 C 1367.22 558.955 1367.1 558.307 1366.79 557.969 C 1365.72 556.84 1363.66 553.542 1362.71 552.049 Z M 1374.49 555.797 L 1379.56 561.52 L 1375.2 567.778 C 1374.21 568.455 1370.68 562.79 1369.79 561.943 L 1374.49 555.797 Z M 1387.68 530.821 C 1387.43 528.708 1383.35 525.748 1383.88 523.831 C 1384.44 521.914 1389.83 514.782 1391.27 512.188 C 1393.69 507.848 1395.27 503.141 1397.44 498.883 C 1397.72 498.291 1397.89 497.502 1398.68 497.36 C 1400.34 502.351 1398.74 507.284 1397.18 512.104 C 1396.68 513.711 1389.23 531.836 1387.68 530.821 Z M 1398.17 487.86 L 1395.72 482.138 L 1398.43 474.895 C 1400.48 479.291 1399.44 483.464 1398.17 487.86 Z M 1398.68 464.914 L 1383.43 434.977 L 1388.45 424.971 C 1390.75 430.579 1393.54 436.077 1395.54 441.828 C 1398.25 449.495 1400.68 456.74 1398.68 464.914 Z M 1383.71 408.198 L 1388.45 397.486 L 1392.54 407.804 L 1388.67 417.98 C 1387.94 418.515 1384.16 409.071 1383.71 408.198 Z M 1390.31 393.68 L 1393.69 384.012 C 1394.62 384.546 1395.02 386.604 1395.33 387.619 C 1395.77 389.198 1396.96 392.948 1397.02 394.329 C 1397.07 396.893 1394.77 400.727 1394.68 403.491 C 1393.41 403.688 1393.89 403.377 1393.64 402.785 C 1392.37 399.966 1391.71 396.499 1390.31 393.68 Z M 1388.67 389.508 L 1383.79 378.852 C 1385.91 375.47 1386.7 371.017 1389.18 368.028 C 1389.18 371.156 1392.56 376.063 1392.62 378.768 C 1392.68 380.995 1388.98 386.801 1388.67 389.508 Z M 1381.71 375.526 L 1376.29 363.885 L 1382.95 352.553 L 1387.21 363.771 C 1387.29 365.011 1382.27 375.977 1381.71 375.526 Z M 1380.18 378.824 L 1375.2 390.496 L 1369.25 379.275 L 1374.21 367.55 L 1380.18 378.824 Z M 1367.22 375.526 L 1362.23 364.25 L 1365.72 353.059 L 1372.66 364.278 L 1367.22 375.526 Z M 1365.66 379.275 L 1361.72 389.508 C 1361.02 389.452 1360.91 388.775 1360.68 388.296 C 1359.91 386.604 1357.75 380.826 1357.69 379.247 C 1357.66 377.979 1360.35 368.817 1360.96 368.534 L 1365.66 379.275 Z M 1359.58 393.342 L 1356.22 402.983 C 1354.76 401.375 1353.27 396.359 1353.21 394.244 C 1353.21 393.455 1355.43 384.012 1355.97 384.012 L 1359.58 393.342 Z M 1356.22 412.482 L 1359.6 421.643 L 1351.2 442.448 L 1350.7 437.177 C 1351.58 429.51 1352.6 420.657 1355.47 413.469 C 1355.66 412.989 1355.55 412.341 1356.22 412.482 Z M 1351.24 475.401 C 1352.28 476.36 1354.06 481.012 1354.08 482.224 C 1354.14 483.548 1352.33 485.86 1352.22 487.382 L 1350.7 481.123 L 1351.24 475.401 Z M 1350.73 570.766 C 1351.49 571.414 1353.6 575.502 1353.64 576.094 C 1353.68 576.883 1352.47 578.096 1351.97 578.744 C 1351.01 578.799 1350.53 571.696 1350.73 570.766 Z M 1353.27 583 C 1353.29 582.436 1354.85 578.434 1355.72 579.252 L 1359.12 585.001 C 1358.96 585.283 1358.43 586.072 1357.78 586.834 C 1356.85 587.99 1355.72 589.174 1355.24 588.752 C 1355.27 588.102 1355.07 587.482 1354.76 586.834 C 1354.2 585.51 1353.24 584.184 1353.27 583 Z M 1357.41 576.517 L 1360.96 571.781 L 1365.22 578.012 L 1361.47 582.746 C 1360.39 582.972 1358.03 577.589 1357.41 576.517 Z M 1363.22 569.499 L 1367.22 563.774 L 1372.21 570.004 C 1372.21 571.189 1367.53 575.981 1367.22 575.755 L 1363.22 569.499 Z M 1374.21 572.26 L 1379.65 578.067 L 1374.47 584.24 L 1369.79 578.096 C 1369.95 576.208 1373.98 574.317 1374.21 572.26 Z M 1376.75 570.456 L 1381.52 564.282 C 1382.5 564.085 1385.62 568.483 1386.19 569.499 L 1381.45 575.755 L 1376.75 570.456 Z M 1387.77 572.373 L 1389.1 572.373 L 1392.17 577.025 L 1387.68 583.253 L 1383.85 578.012 L 1387.77 572.373 Z M 1390.29 585.51 L 1394.42 579.252 C 1397.41 582.071 1396.65 584.24 1395.44 586.834 C 1395.02 587.736 1394.56 588.695 1394.17 589.737 L 1391.49 586.834 L 1390.29 585.51 Z M 1396.29 576.094 L 1399.66 569.779 C 1399.98 573.191 1399.35 576.433 1398.68 579.759 C 1397.77 579.252 1396.2 576.967 1396.29 576.094 Z M 1399.66 542.041 C 1399.56 543.168 1398.5 544.945 1398.68 546.298 C 1397.35 545.479 1396.73 543.479 1396.23 542.041 L 1399.66 534.317 C 1399.5 536.798 1399.95 539.616 1399.66 542.041 Z M 1399.66 521.576 C 1399.29 525.241 1396.51 535.924 1394.42 538.799 C 1394.23 539.053 1393.72 539.674 1393.69 539.053 L 1390.37 533.556 L 1399.66 514.332 C 1399.5 516.67 1399.89 519.291 1399.66 521.576 Z M 1399.66 444.42 L 1390.29 422.095 L 1393.69 412.482 C 1394.62 413.019 1394.98 415.076 1395.33 416.092 C 1398.23 425.224 1400.12 434.808 1399.66 444.42 Z M 1399.66 419.472 L 1395.83 408.17 L 1398.17 400.502 C 1398.9 400.36 1398.82 401.432 1398.93 401.968 C 1400.09 407.747 1399.58 413.61 1399.66 419.472 Z M 1398.68 388.013 L 1395.83 379.191 L 1398.43 370.536 C 1400.06 376.202 1400.06 382.291 1398.68 388.013 Z M 1397.44 354.553 C 1398.96 354.441 1397.66 355.089 1397.66 355.314 C 1397.66 358.049 1398.06 362.306 1397.66 364.786 C 1397.29 367.294 1394.85 371.27 1394.42 374.032 L 1390.7 364.278 L 1397.44 354.553 Z M 1355.21 338.316 C 1355.35 337.583 1355.43 337.527 1356.06 337.16 C 1356.87 336.652 1362.08 336.173 1363.47 336.089 C 1371.16 335.581 1379.71 335.581 1387.43 336.089 C 1389.85 336.258 1392.77 336.68 1395.18 337.075 L 1395.18 352.805 L 1389.18 360.558 L 1383.93 345.561 L 1374.47 361.037 L 1364.96 345.561 L 1359.97 360.529 C 1359.58 360.529 1355.64 354.441 1355.49 354.045 C 1355.02 352.637 1354.91 340.036 1355.21 338.316 Z M 1352.22 354.553 L 1358.76 364.786 L 1355.97 373.524 C 1354.85 371.242 1353.49 368.028 1352.95 365.575 C 1352.81 364.927 1352.22 362.136 1352.22 361.798 L 1352.22 354.553 Z M 1351.24 371.044 C 1352.39 372.284 1354.08 376.711 1354.2 378.345 C 1354.39 380.968 1352.25 384.265 1352.22 387.029 C 1351.52 387.761 1351.33 386.971 1351.24 386.267 C 1350.58 381.164 1351.16 376.147 1351.24 371.044 Z M 1350.73 404.731 C 1350.79 404.054 1351.1 402.701 1351.24 401.743 C 1351.33 401.066 1351.49 400.191 1352.22 400.981 L 1354.2 407.775 L 1350.73 418.458 C 1351.01 414.033 1350.33 409.127 1350.73 404.731 Z M 1351.74 593.741 C 1351.47 591.316 1350.39 589.258 1351.2 586.834 C 1351.2 586.805 1351.24 586.778 1351.24 586.75 L 1351.24 586.834 C 1351.24 586.834 1353.64 591.599 1353.64 591.599 C 1353.85 592.219 1351.91 593.91 1351.74 593.741 Z M 1356.48 602.705 C 1356.12 602.705 1353.74 598.139 1353.72 597.433 C 1353.68 596.644 1354.85 594.024 1355.72 594.727 L 1358.66 600.082 L 1356.48 602.705 Z M 1360.74 598.223 L 1357.33 591.993 L 1361.22 587.736 L 1365.22 593.994 C 1365.22 594.868 1361.33 598.673 1360.74 598.223 Z M 1367.16 591.43 L 1364.12 586.834 L 1363.22 585.48 L 1367.47 580.267 L 1372.21 586.495 L 1371.95 586.834 L 1368.2 591.739 L 1367.16 591.43 Z M 1374.47 599.237 L 1369.76 594.051 C 1370.49 593.177 1374.21 588.047 1375.2 588.752 L 1379.6 593.966 L 1374.47 599.237 Z M 1381.45 591.739 L 1377.37 586.834 L 1376.75 586.072 L 1381.48 580.773 C 1382.33 580.603 1386.19 584.946 1386.1 585.905 L 1385.37 586.834 L 1381.45 591.739 Z M 1387.21 598.223 L 1383.83 593.994 L 1388.45 588.243 L 1392.02 592.5 C 1391.63 593.402 1388.31 599.04 1387.21 598.223 Z M 1392.93 603.213 L 1390.22 600.054 L 1393.69 595.234 C 1398.25 596.672 1395.1 600.929 1392.93 603.213 Z M 1398.17 594.727 C 1394.73 592.614 1397.02 589.174 1399.08 586.834 L 1399.16 586.75 C 1399.16 586.75 1399.16 586.805 1399.16 586.834 C 1400.14 589.681 1398.88 591.993 1398.14 594.727 L 1398.17 594.727 Z" style=""/>
    <path class="cls-2" d="M 1377.25 182.344 C 1376.52 183.189 1377.68 192.662 1377.73 194.521 C 1378.24 215.579 1376.21 238.723 1378.27 259.386 C 1378.41 260.767 1380.98 271.112 1381.45 271.676 C 1382.27 272.663 1384.53 271.901 1385.85 272.268 C 1389.54 273.311 1387.79 285.489 1388.19 288.647 C 1388.89 288.675 1389.66 288.533 1390.33 288.731 C 1392.08 289.267 1393.83 295.581 1393.27 297.555 L 1396.25 298.428 C 1396.12 299.809 1397.58 301.951 1397.64 302.855 C 1397.69 303.53 1397.16 304.461 1397.16 305.362 C 1397.18 308.012 1397.24 310.662 1397.1 313.311 L 1396.14 313.932 C 1382.19 312.044 1367.64 311.846 1353.72 314.129 C 1353.72 310.127 1354.06 306.377 1352.81 302.516 C 1354.64 300.176 1353.72 297.299 1357.69 297.638 C 1357.64 294.228 1356.95 292.734 1359.22 289.915 C 1360.48 288.336 1362 288.816 1362.2 288.647 C 1362.74 288.138 1362.12 276.046 1362.93 274.157 C 1363.78 271.536 1367.08 272.296 1369.16 272.126 C 1370.52 266.573 1372.33 261.191 1372.72 255.439 C 1373.7 240.019 1373.03 222.203 1373.25 206.53 C 1373.37 198.553 1373.11 190.576 1373.25 182.597 C 1363.1 179.751 1369.45 173.747 1377.43 174.846 C 1383.93 175.748 1383.99 181.893 1377.25 182.344 Z M 1365.22 275.905 L 1365.22 288.138 C 1372.04 287.068 1378.89 286.984 1385.68 288.138 L 1385.14 275.172 C 1384.53 274.524 1370.89 274.467 1368.91 274.636 C 1367.58 274.749 1366.14 274.89 1365.19 275.905 L 1365.22 275.905 Z M 1390.19 293.636 C 1380.39 292.452 1370.12 291.775 1360.45 294.087 L 1360.23 297.132 L 1390.19 297.132 C 1390.19 297.132 1390.19 293.636 1390.19 293.636 Z" style=""/>
    <path class="cls-2" d="M 1397.07 317.709 C 1397.95 318.696 1397.98 321.149 1396.48 321.374 C 1394.2 321.74 1387.85 320.19 1384.98 320.05 C 1374.83 319.598 1364.06 320.05 1354.03 321.488 C 1351.97 320.134 1352.91 317.654 1355.1 317.174 C 1358.26 316.498 1364.54 316.188 1367.95 316.046 C 1377.51 315.652 1387.66 316.244 1397.07 317.682 L 1397.07 317.709 Z" style=""/>
  </g>
</svg>